<svg xmlns="http://www.w3.org/2000/svg" viewBox="0 0 32 32">
  <defs>
    <mask id="gearMask">
      <rect width="32" height="32" fill="white"/>
      <circle cx="16" cy="16" r="4.5" fill="black"/>
    </mask>
  </defs>
  <!-- Gear outer -->
  <g mask="url(#gearMask)">
    <path d="M14,3 L18,3 L19,6.5 L22,7.5 L25,5.5 L27.5,8 L25.5,11 L26.5,14 L30,15 L30,19 L26.5,20 L25.5,23 L27.5,26 L25,28.5 L22,26.5 L19,27.5 L18,31 L14,31 L13,27.5 L10,26.5 L7,28.5 L4.5,26 L6.5,23 L5.5,20 L2,19 L2,15 L5.5,14 L6.5,11 L4.5,8 L7,5.5 L10,7.5 L13,6.5 Z"
          fill="#2d2d2d" stroke="#0078d4" stroke-width="0.8"/>
  </g>
  <!-- Inner ring -->
  <circle cx="16" cy="16" r="4.5" fill="none" stroke="#60cdff" stroke-width="1" opacity="0.5"/>
  <!-- Center dot -->
  <circle cx="16" cy="16" r="1.5" fill="#0078d4" opacity="0.7"/>
</svg>
