<?xml version="1.0" encoding="UTF-8"?>
<svg xmlns="http://www.w3.org/2000/svg" width="1920" height="1080" viewBox="0 0 1920 1080" preserveAspectRatio="xMidYMid slice">
  <defs>
    <linearGradient id="skyAnime" x1="0%" y1="0%" x2="0%" y2="100%">
      <stop offset="0%" stop-color="#7ec8e3"/>
      <stop offset="45%" stop-color="#a8dff0"/>
      <stop offset="100%" stop-color="#e8f8ff"/>
    </linearGradient>
    <linearGradient id="hillGreen" x1="0%" y1="0%" x2="0%" y2="100%">
      <stop offset="0%" stop-color="#6ab06a"/>
      <stop offset="100%" stop-color="#3d8b4a"/>
    </linearGradient>
    <radialGradient id="cloudCore" cx="50%" cy="50%" r="50%">
      <stop offset="0%" stop-color="#ffffff"/>
      <stop offset="100%" stop-color="#f0f8ff" stop-opacity="0.92"/>
    </radialGradient>
  </defs>
  <rect width="1920" height="1080" fill="url(#skyAnime)"/>
  <g fill="url(#cloudCore)" opacity="0.95">
    <ellipse cx="480" cy="200" rx="140" ry="55"/>
    <ellipse cx="580" cy="195" rx="120" ry="50"/>
    <ellipse cx="380" cy="210" rx="100" ry="42"/>
    <ellipse cx="1320" cy="160" rx="160" ry="58"/>
    <ellipse cx="1440" cy="155" rx="130" ry="52"/>
    <ellipse cx="1240" cy="175" rx="90" ry="40"/>
    <ellipse cx="900" cy="120" rx="100" ry="38" opacity="0.75"/>
    <ellipse cx="980" cy="115" rx="75" ry="32" opacity="0.7"/>
  </g>
  <path d="M0 520 Q320 460 640 520 T1280 500 T1920 520 L1920 1080 L0 1080 Z" fill="#5cb85c" opacity="0.55"/>
  <path d="M0 600 Q480 520 960 600 T1920 560 L1920 1080 L0 1080 Z" fill="url(#hillGreen)"/>
  <path d="M0 720 Q640 660 1280 740 T1920 700 L1920 1080 L0 1080 Z" fill="#2d7a3e"/>
  <path d="M0 850 Q960 780 1920 860 L1920 1080 L0 1080 Z" fill="#1f5c30"/>
</svg>
